<?xml version="1.0" encoding="UTF-8" standalone="no"?>
<!DOCTYPE svg PUBLIC "-//W3C//DTD SVG 1.1//EN" "http://www.w3.org/Graphics/SVG/1.1/DTD/svg11.dtd">
<svg xmlns="http://www.w3.org/2000/svg" version="1.1" viewBox="0 0 57 57" width="57.0pt" height="57.0pt">
<path d="M 0.00 0.00 L 57.00 0.00 L 57.00 57.00 L 0.00 57.00 L 0.00 0.00 Z" fill="#ffffff" />
<path d="M 22.37 6.23 C 27.13 5.19 32.27 5.36 36.87 7.05 C 45.60 10.13 52.72 18.53 52.97 27.99 C 54.43 39.09 45.64 50.37 34.99 53.00 C 23.65 56.26 11.10 50.59 6.03 39.95 C 2.08 31.84 3.29 21.94 8.89 14.92 C 12.29 10.52 17.09 7.75 22.37 6.23 Z" fill="#134f5c" />
<path d="M 34.95 14.67 C 35.02 16.41 35.11 18.14 35.28 19.86 C 33.82 19.87 32.35 19.89 30.88 19.91 C 30.78 21.37 30.69 22.84 30.60 24.31 C 32.23 24.32 33.85 24.32 35.47 24.33 C 35.27 26.10 35.08 27.88 34.89 29.65 C 33.48 29.64 32.08 29.63 30.68 29.62 C 30.65 34.59 30.68 39.57 30.66 44.54 C 28.54 44.54 26.42 44.54 24.30 44.53 C 24.27 39.58 24.30 34.63 24.27 29.67 C 23.27 29.64 22.27 29.60 21.27 29.57 C 21.27 27.82 21.27 26.08 21.26 24.33 C 22.25 24.32 23.24 24.31 24.22 24.30 C 24.35 21.97 23.97 18.59 25.72 16.75 C 27.78 14.18 32.01 14.84 34.95 14.67 Z" fill="#ffffff" />
</svg>